{"title":"The.Reef.2010.R5.XVID AC3 HQ.Hive-CM8 (5.1 Audio)","uid":5957714,"size":1634059572,"categoryP":"video","categoryS":"movies","magnet":"?xt=urn:btih:d01e72a0d6876ab5b3303e1a69a5f5abd1164bb2&amp;dn=The.Reef.2010.R5.XVID+AC3+HQ.Hive-CM8+%285.1+Audio%29&amp;tr=udp%3A%2F%2Ftracker.openbittorrent.com%3A80&amp;tr=udp%3A%2F%2Fopen.demonii.com%3A1337&amp;tr=udp%3A%2F%2Ftracker.coppersurfer.tk%3A6969&amp;tr=udp%3A%2F%2Fexodus.desync.com%3A6969","seeders":0,"leechers":0,"uploader":".BONE.","files":108,"time":1289800959,"description":"[size=5]The Reef 2010 R5 XVID AC3 HQ Hive-CM8[/size]\n\n\n\nThx Hive\n\nCM8 Doing It Right The First Time\n\n\nSource: Russian R5 DVD9\nOtkrytoe.more.Novye.zhertvy.2010.DVD-9\nhad English 5.1 Audio on it\n\nVideo: 720x400 @bitrate 2200\nAudio: English AC3 5.1 @256\n(yes both audiotracks had bitrate 256)\nSample: yes included\n\nEncode:\nadded sharpness,chroma,denoise\n\n &lt;a href=&quot;\nhttp://www.imdb.com/title/tt1320291/&quot; rel=&quot;nofollow&quot; target=&quot;_NEW&quot;&gt;\nhttp://www.imdb.com/title/tt1320291/&lt;/a&gt;\n\nGeneral\nComplete name : The.Reef.2010.R5.XVID.AC3.HQ.Hive-CM8.avi\nFormat : AVI\nFormat/Info : Audio Video Interleave\nFile size : 1.52 GiB\nDuration : 1h 28mn\nOverall bit rate : 2 465 Kbps\nWriting application : Nandub v1.0rc2\nWriting library : Nandub build 1853/release\n\nVideo\nID : 0\nFormat : MPEG-4 Visual\nFormat profile : Advanced Simple@L5\nFormat settings, BVOP : Yes\nFormat settings, QPel : Yes\nFormat settings, GMC : No warppoints\nFormat settings, Matrix : Default (H.263)\nMuxing mode : Packed bitstream\nCodec ID : XVID\nCodec ID/Hint : XviD\nDuration : 1h 28mn\nBit rate : 2 199 Kbps\nWidth : 720 pixels\nHeight : 400 pixels\nDisplay aspect ratio : 16:9\nFrame rate : 25.000 fps\nColor space : YUV\nChroma subsampling : 4:2:0\nBit depth : 8 bits\nScan type : Progressive\nBits/(Pixel*Frame) : 0.305\nStream size : 1.35 GiB (89%)\nWriting library : XviD 1.2.1 (UTC 2008-12-04)\n\nAudio\nID : 1\nFormat : AC-3\nFormat/Info : Audio Coding 3\nMode extension : CM (complete main)\nCodec ID : 2000\nDuration : 1h 28mn\nBit rate mode : Constant\nBit rate : 256 Kbps\nChannel(s) : 6 channels\nChannel positions : Front: L C R, Side: L R, LFE\nSampling rate : 48.0 KHz\nBit depth : 16 bits\nStream size : 161 MiB (10%)\nAlignment : Split accross interleaves\nInterleave, duration : 40 ms (1.00 video frame)\nInterleave, preload duration : 500 ms\n\n\n\nAdrienne Pickering ... Suzie\nZoe Naylor ... Kate\nGyton Grantley ... Matt\nDamian Walshe-Howling ... Luke\nKieran Darcy-Smith ... Warren\n\n\n\nLuke welcomes his friend Matt and his girlfriend Suzie that come\nfrom London and Matt's sister and Luke's former girlfriend Kate\nthat comes from Sydney to sail with him and the sailor Warren\nin a sailboat. However, the vessel hits an underwater rock and\ncapsizes with an opening on her bottom. Luke advises that they\nshould swim in the north direction to reach the Turtle Island,\nin Queensland, Australia, while they have strength since there\nis a current moving the boat in the opposite direction of land\nbut Warren prefers to stay on the hull waiting for help since\nthere are sharks in the water. The quartet swims, but they are hunted by a great white shark. ","torrent":{"xt":"urn:btih:d01e72a0d6876ab5b3303e1a69a5f5abd1164bb2","amp;dn":"The.Reef.2010.R5.XVID+AC3+HQ.Hive-CM8+%285.1+Audio%29","amp;tr":["udp%3A%2F%2Ftracker.openbittorrent.com%3A80","udp%3A%2F%2Fopen.demonii.com%3A1337","udp%3A%2F%2Ftracker.coppersurfer.tk%3A6969","udp%3A%2F%2Fexodus.desync.com%3A6969"],"infoHash":"d01e72a0d6876ab5b3303e1a69a5f5abd1164bb2","infoHashBuffer":{"type":"Buffer","data":[208,30,114,160,214,135,106,181,179,48,62,26,105,165,245,171,209,22,75,178]},"announce":[],"urlList":[]}}